<svg width="24" height="24" viewBox="0 0 24 24" fill="none" xmlns="http://www.w3.org/2000/svg">
<path d="M10.3333 9.69141C9.8725 9.69141 9.5 10.0353 9.5 10.4606V16.6145C9.5 17.0399 9.8725 17.3837 10.3333 17.3837C10.7942 17.3837 11.1667 17.0399 11.1667 16.6145V10.4606C11.1667 10.0353 10.7942 9.69141 10.3333 9.69141Z" fill="#2E2E2E" fill-opacity="0.8"/>
<path d="M13.6656 9.69141C13.2048 9.69141 12.8323 10.0353 12.8323 10.4606V16.6145C12.8323 17.0399 13.2048 17.3837 13.6656 17.3837C14.1264 17.3837 14.4989 17.0399 14.4989 16.6145V10.4606C14.4989 10.0353 14.1264 9.69141 13.6656 9.69141Z" fill="#2E2E2E" fill-opacity="0.8"/>
<path d="M14.5 2H9.5C8.58083 2 7.83333 2.69 7.83333 3.53846V5.07692H5.33333H2.83333C2.3725 5.07692 2 5.42077 2 5.84615C2 6.27154 2.3725 6.61538 2.83333 6.61538H4.5V19.6923C4.5 20.9646 5.62167 22 7 22H17C18.3783 22 19.5 20.9646 19.5 19.6923V6.61538H21.1667C21.6275 6.61538 22 6.27154 22 5.84615C22 5.42077 21.6275 5.07692 21.1667 5.07692H18.6667H16.1667V3.53846C16.1667 2.69 15.4192 2 14.5 2ZM17.8333 19.6923C17.8333 20.1169 17.46 20.4615 17 20.4615H7C6.54 20.4615 6.16667 20.1169 6.16667 19.6923V6.61538H17.8333V19.6923ZM9.5 5.07692V3.53846H14.5V5.07692H9.5Z" fill="#2E2E2E" fill-opacity="0.8"/>
</svg>
