<svg width="24" height="24" viewBox="0 0 24 24" fill="none" xmlns="http://www.w3.org/2000/svg">
<path d="M18.4273 12.0005C18.0328 12.0005 17.713 12.3202 17.713 12.7147V19.857C17.713 20.2515 17.3933 20.5712 16.9988 20.5712H4.14269C3.74822 20.5712 3.42845 20.2515 3.42845 19.857V5.57238C3.42845 5.17791 3.74822 4.85814 4.14269 4.85814H12.7135C13.1079 4.85814 13.4277 4.53836 13.4277 4.14389C13.4277 3.74942 13.1079 3.42969 12.7135 3.42969H4.14269C2.95932 3.42969 2 4.389 2 5.57238V19.857C2 21.0404 2.95932 21.9997 4.14269 21.9997H16.9988C18.1822 21.9997 19.1415 21.0404 19.1415 19.857V12.7147C19.1415 12.3202 18.8218 12.0005 18.4273 12.0005Z" fill="#2E2E2E" fill-opacity="0.8"/>
<path d="M21.2017 2.80093C20.6889 2.28802 19.9933 1.99993 19.268 2.00001C18.5423 1.99792 17.846 2.28651 17.3346 2.80139L7.92668 12.2085C7.84863 12.2871 7.78975 12.3827 7.75456 12.4877L6.32611 16.7731C6.20144 17.1474 6.40378 17.5518 6.77804 17.6764C6.85065 17.7006 6.92669 17.713 7.00319 17.7131C7.07986 17.7129 7.15607 17.7006 7.22888 17.6767L11.5143 16.2482C11.6195 16.2131 11.7151 16.1539 11.7935 16.0754L21.2014 6.66752C22.2692 5.59986 22.2693 3.86872 21.2017 2.80093ZM20.1915 5.65828L10.9064 14.9433L8.13237 15.8696L9.05587 13.0991L18.3444 3.81414C18.8551 3.3045 19.6822 3.30534 20.1919 3.81599C20.4353 4.05993 20.5725 4.39016 20.5736 4.73479C20.5744 5.08126 20.4369 5.41371 20.1915 5.65828Z" fill="#2E2E2E" fill-opacity="0.8"/>
</svg>
