<svg width="20" height="18" viewBox="0 0 20 18" fill="none" xmlns="http://www.w3.org/2000/svg">
<path d="M12.0445 18C11.9854 18 11.9254 17.9928 11.8663 17.9766C11.5027 17.8802 11.2881 17.5086 11.3864 17.1495L15.9317 0.500404C16.0299 0.139523 16.4045 -0.0765109 16.7682 0.025162C17.1317 0.121562 17.3463 0.493154 17.2481 0.852222L12.7027 17.5014C12.6208 17.8019 12.3453 18 12.0445 18Z" fill="#4B84F4"/>
<path d="M3.40977 18C3.35068 18 3.29075 17.9928 3.23166 17.9766C2.86794 17.8802 2.65338 17.5086 2.75159 17.1495L7.29711 0.500404C7.39515 0.139523 7.77069 -0.0765109 8.1334 0.025162C8.49712 0.121562 8.71152 0.493154 8.61348 0.852222L4.06795 17.5014C3.98605 17.8019 3.71073 18 3.40977 18Z" fill="#4B84F4"/>
<path d="M17.5001 13.5001H0.68182C0.305454 13.5001 0 13.1977 0 12.8251C0 12.4526 0.305454 12.1502 0.68182 12.1502H17.5001C17.8765 12.1502 18.1819 12.4526 18.1819 12.8251C18.1819 13.1977 17.8765 13.5001 17.5001 13.5001Z" fill="#4B84F4"/>
<path d="M19.3183 5.85086H2.50018C2.12381 5.85086 1.81836 5.54847 1.81836 5.17589C1.81836 4.80331 2.12381 4.50093 2.50018 4.50093H19.3183C19.6947 4.50093 20.0001 4.80331 20.0001 5.17589C20.0001 5.54847 19.6947 5.85086 19.3183 5.85086Z" fill="#4B84F4"/>
</svg>
