<svg width="17" height="21" viewBox="0 0 17 21" fill="none" xmlns="http://www.w3.org/2000/svg">
<path d="M7.91062 20.726C8.04199 20.8972 8.26318 21 8.5 21C8.73682 21 8.95801 20.8972 9.08938 20.726C10.7657 18.5421 13.2348 15.8448 14.9554 13.1017C16.3312 10.9083 17 9.03763 17 7.38281C17 3.31193 13.1869 0 8.5 0C3.8131 0 0 3.31193 0 7.38281C0 9.03763 0.668808 10.9083 2.04458 13.1017C3.76389 15.8427 6.23773 18.5466 7.91062 20.726ZM8.5 1.23047C12.4058 1.23047 15.5833 3.99041 15.5833 7.38281C15.5833 8.82673 14.971 10.5048 13.7114 12.513C12.2283 14.8775 10.1119 17.2761 8.5 19.2925C6.88835 17.2764 4.77181 14.8776 3.2886 12.513C2.029 10.5048 1.41667 8.82673 1.41667 7.38281C1.41667 3.99041 4.59425 1.23047 8.5 1.23047Z" fill="#4B84F4"/>
<path d="M8.5 11.0742C10.8435 11.0742 12.75 9.41825 12.75 7.38281C12.75 5.34737 10.8435 3.69141 8.5 3.69141C6.15655 3.69141 4.25 5.34737 4.25 7.38281C4.25 9.41825 6.15655 11.0742 8.5 11.0742ZM8.5 4.92188C10.0623 4.92188 11.3333 6.02585 11.3333 7.38281C11.3333 8.73977 10.0623 9.84375 8.5 9.84375C6.9377 9.84375 5.66667 8.73977 5.66667 7.38281C5.66667 6.02585 6.9377 4.92188 8.5 4.92188Z" fill="#4B84F4"/>
</svg>
