<svg width="17" height="20" viewBox="0 0 17 20" fill="none" xmlns="http://www.w3.org/2000/svg">
<path d="M14.875 19.8333H2.125C0.953898 19.8333 0 18.9996 0 17.974V9.29687C0 8.27125 0.953898 7.4375 2.125 7.4375H14.875C16.0461 7.4375 17 8.27125 17 9.29687V17.974C17 18.9996 16.0461 19.8333 14.875 19.8333ZM2.125 8.67708C1.73486 8.67708 1.41667 8.95475 1.41667 9.29687V17.974C1.41667 18.3161 1.73486 18.5937 2.125 18.5937H14.875C15.2651 18.5937 15.5833 18.3161 15.5833 17.974V9.29687C15.5833 8.95475 15.2651 8.67708 14.875 8.67708H2.125Z" fill="#4B84F4"/>
<path d="M13.4583 8.67708C13.0673 8.67708 12.7499 8.39942 12.7499 8.05729V4.95833C12.7499 2.908 10.8432 1.23958 8.49992 1.23958C6.15668 1.23958 4.24992 2.908 4.24992 4.95833V8.05729C4.24992 8.39942 3.93259 8.67708 3.54159 8.67708C3.15058 8.67708 2.83325 8.39942 2.83325 8.05729V4.95833C2.83325 2.22374 5.37467 0 8.49992 0C11.6252 0 14.1666 2.22374 14.1666 4.95833V8.05729C14.1666 8.39942 13.8493 8.67708 13.4583 8.67708Z" fill="#4B84F4"/>
</svg>
