<svg width="18" height="20" viewBox="0 0 18 20" fill="none" xmlns="http://www.w3.org/2000/svg">
<path d="M9.00002 10.8799C3.1963 10.8799 0 13.6255 0 18.611C0 19.0004 0.315582 19.316 0.704956 19.316H17.295C17.6844 19.316 18 19.0004 18 18.611C18 13.6258 14.8037 10.8799 9.00002 10.8799ZM1.43557 17.9061C1.71286 14.1785 4.25422 12.2899 9.00002 12.2899C13.7458 12.2899 16.2872 14.1785 16.5647 17.9061H1.43557Z" fill="#4B84F4"/>
<path d="M8.99947 0C6.33353 0 4.32324 2.05073 4.32324 4.77002C4.32324 7.56894 6.42098 9.84573 8.99947 9.84573C11.578 9.84573 13.6757 7.56894 13.6757 4.77024C13.6757 2.05073 11.6654 0 8.99947 0ZM8.99947 8.43605C7.1983 8.43605 5.73316 6.79159 5.73316 4.77024C5.73316 2.82314 7.10689 1.40991 8.99947 1.40991C10.8618 1.40991 12.2658 2.85438 12.2658 4.77024C12.2658 6.79159 10.8006 8.43605 8.99947 8.43605Z" fill="#4B84F4"/>
</svg>
