<svg width="19" height="20" viewBox="0 0 19 20" fill="none" xmlns="http://www.w3.org/2000/svg">
<path d="M17.5587 15.5395L17.2953 14.4786C15.6152 17.191 12.6989 18.8931 9.51097 19.0219C4.66225 19.0219 0.731613 15.0913 0.731613 10.2426H2.19484C2.19484 14.2832 5.47037 17.5587 9.51097 17.5587C12.2741 17.4376 14.7869 15.9222 16.1833 13.5348L14.8079 13.9007L14.4567 12.4374L17.3831 11.7058C17.775 11.6092 18.1711 11.8482 18.2684 12.2399L19 15.1663L17.5587 15.5395ZM1.63881 7.31613L4.56527 6.58452L4.21409 5.12129L2.83866 5.46515C4.24039 3.08617 6.7522 1.57964 9.51097 1.46323C13.5516 1.46323 16.8271 4.73875 16.8271 8.77936H18.2903C18.2903 3.93064 14.3597 0 9.51097 0C6.31515 0.121676 3.38906 1.82469 1.70466 4.54332L1.46323 3.48248L0 3.83365L0.731613 6.76011C0.748212 6.81635 0.828049 7.06373 1.08649 7.21782C1.33433 7.36556 1.5785 7.32734 1.63881 7.31613Z" fill="#4B84F4"/>
</svg>
